<?xml version="1.0" encoding="UTF-8"?>
<svg xmlns="http://www.w3.org/2000/svg" width="2260" height="2010" viewBox="0 0 2260 2010" role="img" aria-labelledby="title desc">
  <title id="title">WORKFLOW CHI TIẾT — PHÒNG ĐIỀU DƯỠNG (PĐD)</title>
  <desc id="desc">Chuẩn bị đợt → hiệu chỉnh → CHỐT Q → ba giai đoạn → rớt → phân bổ số trúng → chốt trình ký · Cập nhật 20/08/2026</desc>
  <defs>
    <filter id="shadow" x="-20%" y="-20%" width="140%" height="150%"><feDropShadow dx="0" dy="4" stdDeviation="5" flood-color="#0F172A" flood-opacity="0.10"/></filter>
    <marker id="arrow-slate" viewBox="0 0 12 12" refX="10" refY="6" markerWidth="8" markerHeight="8" orient="auto-start-reverse"><path d="M 0 0 L 12 6 L 0 12 z" fill="#475569"/></marker><marker id="arrow-red" viewBox="0 0 12 12" refX="10" refY="6" markerWidth="8" markerHeight="8" orient="auto-start-reverse"><path d="M 0 0 L 12 6 L 0 12 z" fill="#DC2626"/></marker><marker id="arrow-green" viewBox="0 0 12 12" refX="10" refY="6" markerWidth="8" markerHeight="8" orient="auto-start-reverse"><path d="M 0 0 L 12 6 L 0 12 z" fill="#16A34A"/></marker><marker id="arrow-amber" viewBox="0 0 12 12" refX="10" refY="6" markerWidth="8" markerHeight="8" orient="auto-start-reverse"><path d="M 0 0 L 12 6 L 0 12 z" fill="#D97706"/></marker><marker id="arrow-violet" viewBox="0 0 12 12" refX="10" refY="6" markerWidth="8" markerHeight="8" orient="auto-start-reverse"><path d="M 0 0 L 12 6 L 0 12 z" fill="#7C3AED"/></marker><marker id="arrow-blue" viewBox="0 0 12 12" refX="10" refY="6" markerWidth="8" markerHeight="8" orient="auto-start-reverse"><path d="M 0 0 L 12 6 L 0 12 z" fill="#2563EB"/></marker><marker id="arrow-teal" viewBox="0 0 12 12" refX="10" refY="6" markerWidth="8" markerHeight="8" orient="auto-start-reverse"><path d="M 0 0 L 12 6 L 0 12 z" fill="#0F766E"/></marker>
    <style>
      text { font-family: Inter, ui-sans-serif, -apple-system, BlinkMacSystemFont, "Segoe UI", sans-serif; }
      .title { font-size: 30px; font-weight: 800; letter-spacing: .5px; fill: #0F172A; }
      .subtitle { font-size: 15px; fill: #475569; }
      .lane-title { font-size: 18px; font-weight: 800; letter-spacing: .7px; }
      .node-title, .note-title { font-size: 17px; font-weight: 750; }
      .node-line, .note-line { font-size: 14px; font-weight: 500; }
      .decision-title { font-size: 15px; font-weight: 800; }
      .decision-line { font-size: 13px; }
      .edge-label { font-size: 12px; font-weight: 650; fill: #334155; }
      .legend { font-size: 12px; font-weight: 650; fill: #334155; }
      .footer { font-size: 12px; fill: #64748B; }
    </style>
  </defs>
  <rect width="100%" height="100%" fill="#FFFFFF"/>
  <text x="60" y="66" class="title">WORKFLOW CHI TIẾT — PHÒNG ĐIỀU DƯỠNG (PĐD)</text>
  <text x="60" y="96" class="subtitle">Chuẩn bị đợt → hiệu chỉnh → CHỐT Q → ba giai đoạn → rớt → phân bổ số trúng → chốt trình ký · Cập nhật 20/08/2026</text>
  <g transform="translate(1500,42)">
    <rect x="0" y="0" width="700" height="92" rx="16" fill="#F8FAFC" stroke="#E2E8F0"/>
    <circle cx="26" cy="27" r="8" fill="#0F766E"/><text x="42" y="31" class="legend">Khoa</text>
    <circle cx="122" cy="27" r="8" fill="#2563EB"/><text x="138" y="31" class="legend">PĐD</text>
    <circle cx="220" cy="27" r="8" fill="#7C3AED"/><text x="236" y="31" class="legend">Hệ thống / đồng bộ</text>
    <circle cx="420" cy="27" r="8" fill="#DC2626"/><text x="436" y="31" class="legend">Nhánh rớt</text>
    <circle cx="540" cy="27" r="8" fill="#D97706"/><text x="556" y="31" class="legend">Điểm cần lưu ý</text>
    <line x1="26" y1="62" x2="92" y2="62" stroke="#475569" stroke-width="2.4" marker-end="url(#arrow-slate)"/><text x="105" y="66" class="legend">Đã triển khai</text>
    <line x1="260" y1="62" x2="326" y2="62" stroke="#D97706" stroke-width="2.4" stroke-dasharray="9 7" marker-end="url(#arrow-amber)"/><text x="340" y="66" class="legend">Vòng lặp · quay lại · ghi chú</text>
  </g>
  <g><rect x="60" y="210" width="2140" height="1640" rx="20" fill="#F8FAFF" stroke="#BFDBFE" stroke-width="2"/><rect x="60" y="210" width="2140" height="56" rx="20" fill="#BFDBFE" fill-opacity="0.30"/><text x="88" y="246" fill="#1E40AF" class="lane-title">PHÒNG ĐIỀU DƯỠNG (cũng là admin — cùng quyền)</text></g>
  <g><path d="M510,347.5 L545,347.5 L545,347.5 L580,347.5" fill="none" stroke="#475569" stroke-width="2.4"  marker-end="url(#arrow-slate)"/><path d="M970,347.5 L1005,347.5 L1005,347.5 L1040,347.5" fill="none" stroke="#475569" stroke-width="2.4"  marker-end="url(#arrow-slate)"/><path d="M1430,347.5 L1465,347.5 L1465,347.5 L1500,347.5" fill="none" stroke="#475569" stroke-width="2.4"  marker-end="url(#arrow-slate)"/><path d="M1810,415 L1810,462.5 L1810,462.5 L1810,510" fill="none" stroke="#475569" stroke-width="2.4"  marker-end="url(#arrow-slate)"/><path d="M1500,582.5 L1465,582.5 L1465,582.5 L1430,582.5" fill="none" stroke="#D97706" stroke-width="2.4" stroke-dasharray="9 7" marker-end="url(#arrow-amber)"/><g transform="translate(1465,574.5)"><rect x="-38" y="-13" width="76" height="24" rx="8" fill="#FFFFFF" fill-opacity="0.94" stroke="#E2E8F0"/><text text-anchor="middle" dominant-baseline="central" class="edge-label">bắt lý do</text></g><path d="M1500,582.5 L1810,655 L1810,700 L545,700 L545,500 L970,582.5" fill="none" stroke="#16A34A" stroke-width="2.4"  marker-end="url(#arrow-green)"/><g transform="translate(545,692)"><rect x="-38" y="-13" width="76" height="24" rx="8" fill="#FFFFFF" fill-opacity="0.94" stroke="#E2E8F0"/><text text-anchor="middle" dominant-baseline="central" class="edge-label">số đã ổn</text></g><path d="M545,655 L430,655 L430,745 L315,745" fill="none" stroke="#16A34A" stroke-width="2.4"  marker-end="url(#arrow-green)"/><g transform="translate(430,737)"><rect x="-51.800000000000004" y="-13" width="103.60000000000001" height="24" rx="8" fill="#FFFFFF" fill-opacity="0.94" stroke="#E2E8F0"/><text text-anchor="middle" dominant-baseline="central" class="edge-label">Q đã đóng băng</text></g><path d="M510,817.5 L545,817.5 L545,817.5 L580,817.5" fill="none" stroke="#475569" stroke-width="2.4"  marker-end="url(#arrow-slate)"/><path d="M820,817.5 L855,817.5 L855,817.5 L890,817.5" fill="none" stroke="#16A34A" stroke-width="2.4"  marker-end="url(#arrow-green)"/><g transform="translate(855,809.5)"><rect x="-38" y="-13" width="76" height="24" rx="8" fill="#FFFFFF" fill-opacity="0.94" stroke="#E2E8F0"/><text text-anchor="middle" dominant-baseline="central" class="edge-label">không</text></g><path d="M820,817.5 L700,890 L700,925 L1810,925 L1810,890 L1500,817.5" fill="none" stroke="#DC2626" stroke-width="2.4"  marker-end="url(#arrow-red)"/><g transform="translate(1810,917)"><rect x="-38" y="-13" width="76" height="24" rx="8" fill="#FFFFFF" fill-opacity="0.94" stroke="#E2E8F0"/><text text-anchor="middle" dominant-baseline="central" class="edge-label">có</text></g><path d="M1160,890 L1160,890 L1160,940 L1810,940 L1810,965 L1810,975" fill="none" stroke="#16A34A" stroke-width="2.4"  marker-end="url(#arrow-green)"/><g transform="translate(1810,932)"><rect x="-74" y="-13" width="148" height="24" rx="8" fill="#FFFFFF" fill-opacity="0.94" stroke="#E2E8F0"/><text text-anchor="middle" dominant-baseline="central" class="edge-label">giữ nguyên phân bổ Q</text></g><path d="M1810,890 L1810,932.5 L1810,932.5 L1810,975" fill="none" stroke="#DC2626" stroke-width="2.4"  marker-end="url(#arrow-red)"/><g transform="translate(1810,924.5)"><rect x="-62.900000000000006" y="-13" width="125.80000000000001" height="24" rx="8" fill="#FFFFFF" fill-opacity="0.94" stroke="#E2E8F0"/><text text-anchor="middle" dominant-baseline="central" class="edge-label">số trúng = Q − ΣR</text></g><path d="M1500,1050 L1465,1050 L1465,1050 L1430,1050" fill="none" stroke="#64748B" stroke-width="2.4" stroke-dasharray="9 7" marker-end="url(#arrow-slate)"/><path d="M1500,1050 L1810,1125 L1810,1160 L775,1160 L775,1125 L970,1050" fill="none" stroke="#DC2626" stroke-width="2.4"  marker-end="url(#arrow-red)"/><g transform="translate(775,1152)"><rect x="-66.60000000000001" y="-13" width="133.20000000000002" height="24" rx="8" fill="#FFFFFF" fill-opacity="0.94" stroke="#E2E8F0"/><text text-anchor="middle" dominant-baseline="central" class="edge-label">mã quản lý trúng 0</text></g><path d="M580,1050 L545,1050 L545,1050 L510,1050" fill="none" stroke="#475569" stroke-width="2.4"  marker-end="url(#arrow-slate)"/><path d="M315,975 L80,1050 L80,348 L100,348 L315,415" fill="none" stroke="#D97706" stroke-width="2.4" stroke-dasharray="9 7" marker-end="url(#arrow-amber)"/><g transform="translate(80,340)"><rect x="-55.5" y="-13" width="111" height="24" rx="8" fill="#FFFFFF" fill-opacity="0.94" stroke="#E2E8F0"/><text text-anchor="middle" dominant-baseline="central" class="edge-label">đợt bổ sung mới</text></g><path d="M1500,1050 L1810,1125 L1810,1185 L545,1185 L545,1200 L545,1210" fill="none" stroke="#16A34A" stroke-width="2.4"  marker-end="url(#arrow-green)"/><g transform="translate(545,1177)"><rect x="-51.800000000000004" y="-13" width="103.60000000000001" height="24" rx="8" fill="#FFFFFF" fill-opacity="0.94" stroke="#E2E8F0"/><text text-anchor="middle" dominant-baseline="central" class="edge-label">đã phân bổ hết</text></g><path d="M970,1285 L1005,1285 L1005,1285 L1040,1285" fill="none" stroke="#475569" stroke-width="2.4"  marker-end="url(#arrow-slate)"/><path d="M1430,1285 L1465,1285 L1465,1285 L1500,1285" fill="none" stroke="#64748B" stroke-width="2.4" stroke-dasharray="9 7" marker-end="url(#arrow-slate)"/><path d="M545,1360 L430,1360 L430,1445 L315,1445" fill="none" stroke="#475569" stroke-width="2.4"  marker-end="url(#arrow-slate)"/><path d="M510,1517.5 L545,1517.5 L545,1517.5 L580,1517.5" fill="none" stroke="#475569" stroke-width="2.4"  marker-end="url(#arrow-slate)"/><path d="M970,1517.5 L1005,1517.5 L1005,1517.5 L1040,1517.5" fill="none" stroke="#475569" stroke-width="2.4"  marker-end="url(#arrow-slate)"/></g>
  <g><g><rect x="120" y="280" width="390" height="135" rx="16" fill="#EFF6FF" stroke="#2563EB" stroke-width="2.4"  filter="url(#shadow)"/><text x="315" y="319.34" text-anchor="middle" fill="#1E3A8A" class="node-title">1 · Tạo / mở đợt</text><text x="315" y="341.34" text-anchor="middle" fill="#1E3A8A" class="node-line">Hệ tự sinh 5 DOT_GOI cho gói 18T</text><text x="315" y="363.34" text-anchor="middle" fill="#1E3A8A" class="node-line">Mỗi đợt bổ sung = 1 gói phẳng</text><text x="315" y="385.34" text-anchor="middle" fill="#1E3A8A" class="node-line">Đóng đợt là chặn ở DB, không chỉ ở giao diện</text></g><g><rect x="580" y="280" width="390" height="135" rx="16" fill="#EFF6FF" stroke="#2563EB" stroke-width="2.4"  filter="url(#shadow)"/><text x="775" y="319.34" text-anchor="middle" fill="#1E3A8A" class="node-title">2 · Phân gói con &amp; khoa</text><text x="775" y="341.34" text-anchor="middle" fill="#1E3A8A" class="node-line">Phân mã quản lý vào từng gói con</text><text x="775" y="363.34" text-anchor="middle" fill="#1E3A8A" class="node-line">Chỉ định danh sách khoa tham gia</text><text x="775" y="385.34" text-anchor="middle" fill="#1E3A8A" class="node-line">Đổi được tới khi chốt Q</text></g><g><rect x="1040" y="280" width="390" height="135" rx="16" fill="#EFF6FF" stroke="#2563EB" stroke-width="2.4"  filter="url(#shadow)"/><text x="1235" y="319.34" text-anchor="middle" fill="#1E3A8A" class="node-title">3 · Bàn điều hành</text><text x="1235" y="341.34" text-anchor="middle" fill="#1E3A8A" class="node-line">Theo dõi: đã gửi · đã xác nhận · Word</text><text x="1235" y="363.34" text-anchor="middle" fill="#1E3A8A" class="node-line">Lọc khoa còn thiếu → nhắc qua Teams</text><text x="1235" y="385.34" text-anchor="middle" fill="#1E3A8A" class="node-line">Web KHÔNG tự gửi thông báo</text></g><g><rect x="1500" y="280" width="620" height="135" rx="16" fill="#EFF6FF" stroke="#2563EB" stroke-width="2.4"  filter="url(#shadow)"/><text x="1810" y="319.34" text-anchor="middle" fill="#1E3A8A" class="node-title">4 · Danh mục tổng hợp</text><text x="1810" y="341.34" text-anchor="middle" fill="#1E3A8A" class="node-line">Cộng theo mã hàng trong đúng một DOT_GOI</text><text x="1810" y="363.34" text-anchor="middle" fill="#1E3A8A" class="node-line">Cột SỐ là VIEW SUM — KHÔNG sửa trực tiếp được</text><text x="1810" y="385.34" text-anchor="middle" fill="#1E3A8A" class="node-line">Cột CHỮ sửa đè trực tiếp (đè cho toàn viện)</text></g><g><rect x="1500" y="510" width="620" height="145" rx="16" fill="#EFF6FF" stroke="#2563EB" stroke-width="2.4"  filter="url(#shadow)"/><text x="1810" y="554.34" text-anchor="middle" fill="#1E3A8A" class="node-title">5 · Hiệu chỉnh số</text><text x="1810" y="576.34" text-anchor="middle" fill="#1E3A8A" class="node-line">PĐD gõ TỔNG của mã → hệ chia sẵn theo tỉ lệ khoa đã đề xuất</text><text x="1810" y="598.34" text-anchor="middle" fill="#1E3A8A" class="node-line">(làm tròn xuống, phần dư dồn vào khoa có số lớn nhất) — PĐD sửa tay được</text><text x="1810" y="620.34" text-anchor="middle" fill="#1E3A8A" class="node-line">Không lưu được nếu tổng các dòng chưa khớp tổng mới</text></g><g><rect x="1040" y="510" width="390" height="145" rx="8" fill="#FFFBEB" stroke="#D97706" stroke-width="2.4" stroke-dasharray="9 6" filter="url(#shadow)"/><text x="1235" y="554.34" text-anchor="middle" fill="#78350F" class="note-title">Sửa số sau khi khoa đã xác nhận</text><text x="1235" y="576.34" text-anchor="middle" fill="#78350F" class="note-line">BẮT BUỘC nhập lý do.</text><text x="1235" y="598.34" text-anchor="middle" fill="#78350F" class="note-line">Khoa thấy số cũ, số mới, người sửa và lý do</text><text x="1235" y="620.34" text-anchor="middle" fill="#78350F" class="note-line">ngay trên bảng của mình.</text></g><g><rect x="120" y="510" width="850" height="145" rx="16" fill="#ECFDF5" stroke="#16A34A" stroke-width="2.4"  filter="url(#shadow)"/><text x="545" y="554.34" text-anchor="middle" fill="#14532D" class="node-title">6 · CHỐT SỐ THAM GIA ĐẤU THẦU  →  Q</text><text x="545" y="576.34" text-anchor="middle" fill="#14532D" class="node-line">CỔNG CỨNG — chỉ bấm được khi MỌI khoa ĐÃ GỬI đề xuất đều đã xác nhận bản hiện tại.</text><text x="545" y="598.34" text-anchor="middle" fill="#14532D" class="node-line">Khoa tham gia mà chưa gửi gì thì KHÔNG tính (nếu tính, nút không bao giờ sáng).</text><text x="545" y="620.34" text-anchor="middle" fill="#14532D" class="node-line">Tạo snapshot Q bất biến · Khoá phạm vi: không thêm mã, không đổi gói con nữa.</text></g><g><rect x="120" y="745" width="390" height="145" rx="16" fill="#EFF6FF" stroke="#2563EB" stroke-width="2.4"  filter="url(#shadow)"/><text x="315" y="789.34" text-anchor="middle" fill="#1E3A8A" class="node-title">7 · Ba giai đoạn đấu thầu</text><text x="315" y="811.34" text-anchor="middle" fill="#1E3A8A" class="node-line">Chào giá → Mở thầu → Đánh giá</text><text x="315" y="833.34" text-anchor="middle" fill="#1E3A8A" class="node-line">Phải hoàn thành giai đoạn trước mới sang sau</text><text x="315" y="855.34" text-anchor="middle" fill="#1E3A8A" class="node-line">Mở lại: bắt lý do; giai đoạn SAU hết hiệu lực</text></g><g><polygon points="700,745 820,817.5 700,890 580,817.5" fill="#FFF7ED" stroke="#EA580C" stroke-width="2.4" filter="url(#shadow)"/><text x="700" y="821.9" text-anchor="middle" fill="#7C2D12" class="decision-title">Mã này</text><text x="700" y="841.9" text-anchor="middle" fill="#7C2D12" class="decision-title">có rớt?</text></g><g><rect x="890" y="745" width="540" height="145" rx="16" fill="#ECFDF5" stroke="#16A34A" stroke-width="2.4"  filter="url(#shadow)"/><text x="1160" y="800.34" text-anchor="middle" fill="#14532D" class="node-title">MẶC ĐỊNH TRÚNG TOÀN BỘ</text><text x="1160" y="822.34" text-anchor="middle" fill="#14532D" class="node-line">Không nhập ngoại lệ → số trúng = Q, số rớt = 0.</text><text x="1160" y="844.34" text-anchor="middle" fill="#14532D" class="node-line">PĐD KHÔNG phải tích trúng cho hàng nghìn mã.</text></g><g><rect x="1500" y="745" width="620" height="145" rx="16" fill="#FEF2F2" stroke="#DC2626" stroke-width="2.4"  filter="url(#shadow)"/><text x="1810" y="789.34" text-anchor="middle" fill="#7F1D1D" class="node-title">8 · Nhập ngoại lệ rớt — cấp MÃ HÀNG</text><text x="1810" y="811.34" text-anchor="middle" fill="#7F1D1D" class="node-line">Nhập: mã hàng · giai đoạn · toàn bộ hay một phần · số lượng · lý do</text><text x="1810" y="833.34" text-anchor="middle" fill="#7F1D1D" class="node-line">Nút “Rớt toàn bộ mã quản lý” tự rải xuống mọi mã hàng bên trong</text><text x="1810" y="855.34" text-anchor="middle" fill="#7F1D1D" class="node-line">Rớt được ở NHIỀU giai đoạn: ΣR = R1+R2+R3 · KHOÁ CỨNG 3: 0 ≤ ΣR ≤ Q</text></g><g><rect x="1500" y="975" width="620" height="150" rx="16" fill="#EFF6FF" stroke="#2563EB" stroke-width="2.4"  filter="url(#shadow)"/><text x="1810" y="1021.84" text-anchor="middle" fill="#1E3A8A" class="node-title">9 · Phân bổ số trúng về khoa</text><text x="1810" y="1043.8400000000001" text-anchor="middle" fill="#1E3A8A" class="node-line">Số trúng = Q − ΣR  ·  CHỈ PĐD được phân bổ</text><text x="1810" y="1065.8400000000001" text-anchor="middle" fill="#1E3A8A" class="node-line">Trúng toàn bộ → giữ nguyên phân bổ Q, không phải nhập lại</text><text x="1810" y="1087.8400000000001" text-anchor="middle" fill="#1E3A8A" class="node-line">Trúng một phần → chia sẵn theo tỉ lệ Q · Rớt toàn bộ → mọi khoa = 0</text></g><g><rect x="1040" y="975" width="390" height="150" rx="8" fill="#F8FAFC" stroke="#64748B" stroke-width="2.4" stroke-dasharray="9 6" filter="url(#shadow)"/><text x="1235" y="1021.84" text-anchor="middle" fill="#334155" class="note-title">KHOÁ CỨNG 2</text><text x="1235" y="1043.8400000000001" text-anchor="middle" fill="#334155" class="note-line">Tổng phân bổ = số trúng của mã.</text><text x="1235" y="1065.8400000000001" text-anchor="middle" fill="#334155" class="note-line">Không có kho dự phòng, không có số chưa phân bổ.</text><text x="1235" y="1087.8400000000001" text-anchor="middle" fill="#334155" class="note-line">Vượt Q của một khoa: được, nhưng phải có lý do.</text></g><g><rect x="580" y="975" width="390" height="150" rx="16" fill="#FEF2F2" stroke="#DC2626" stroke-width="2.4"  filter="url(#shadow)"/><text x="775" y="1021.84" text-anchor="middle" fill="#7F1D1D" class="node-title">10 · Giỏ rớt toàn viện</text><text x="775" y="1043.8400000000001" text-anchor="middle" fill="#7F1D1D" class="node-line">Theo dõi khoa nào chưa xử lý, bao nhiêu ngày</text><text x="775" y="1065.8400000000001" text-anchor="middle" fill="#7F1D1D" class="node-line">Nút “Nhắc” sinh template để copy sang Teams</text><text x="775" y="1087.8400000000001" text-anchor="middle" fill="#7F1D1D" class="node-line">PĐD thao tác thay khoa được — có audit</text></g><g><rect x="120" y="975" width="390" height="150" rx="16" fill="#EFF6FF" stroke="#2563EB" stroke-width="2.4"  filter="url(#shadow)"/><text x="315" y="1021.84" text-anchor="middle" fill="#1E3A8A" class="node-title">11 · Mở đợt bổ sung</text><text x="315" y="1043.8400000000001" text-anchor="middle" fill="#1E3A8A" class="node-line">3 đợt/năm: T1 · T5 · T9</text><text x="315" y="1065.8400000000001" text-anchor="middle" fill="#1E3A8A" class="node-line">Pipeline bổ sung ĐỘC LẬP,</text><text x="315" y="1087.8400000000001" text-anchor="middle" fill="#1E3A8A" class="node-line">không chặn việc chốt kết quả của gói gốc</text></g><g><rect x="120" y="1210" width="850" height="150" rx="16" fill="#ECFDF5" stroke="#16A34A" stroke-width="2.4"  filter="url(#shadow)"/><text x="545" y="1256.84" text-anchor="middle" fill="#14532D" class="node-title">12 · CHỐT DỮ LIỆU TRÌNH KÝ</text><text x="545" y="1278.84" text-anchor="middle" fill="#14532D" class="node-line">Chốt từng bảng khoa → rồi “Chốt toàn bộ” mới tạo được revision chính thức.</text><text x="545" y="1300.84" text-anchor="middle" fill="#14532D" class="node-line">QĐ 20/08/2026 — cổng chỉ tính khoa ĐÃ GỬI đề xuất; khoa im lặng ghi vào audit, KHÔNG chặn.</text><text x="545" y="1322.84" text-anchor="middle" fill="#14532D" class="node-line">Khi chốt: khoá toàn bộ DOT_GOI · Excel khoa và Excel tổng hợp dùng CÙNG revision.</text></g><g><rect x="1040" y="1210" width="390" height="150" rx="16" fill="#EFF6FF" stroke="#2563EB" stroke-width="2.4"  filter="url(#shadow)"/><text x="1235" y="1256.84" text-anchor="middle" fill="#1E3A8A" class="node-title">13 · Xuất Excel chính thức</text><text x="1235" y="1278.84" text-anchor="middle" fill="#1E3A8A" class="node-line">Trước khi chốt: chỉ xuất được bản NHÁP</text><text x="1235" y="1300.84" text-anchor="middle" fill="#1E3A8A" class="node-line">Số trên Excel cuối là SỐ TRÚNG đã phân bổ</text><text x="1235" y="1322.84" text-anchor="middle" fill="#1E3A8A" class="node-line">File sinh tạm rồi xoá — web không lưu file nhị phân</text></g><g><rect x="1500" y="1210" width="620" height="150" rx="8" fill="#F8FAFC" stroke="#64748B" stroke-width="2.4" stroke-dasharray="9 6" filter="url(#shadow)"/><text x="1810" y="1256.84" text-anchor="middle" fill="#334155" class="note-title">Mở lại sau khi đã chốt</text><text x="1810" y="1278.84" text-anchor="middle" fill="#334155" class="note-line">Mở một bảng khoa → bản tổng hợp TỰ HẾT HIỆU LỰC, revision cũ mất giá trị.</text><text x="1810" y="1300.84" text-anchor="middle" fill="#334155" class="note-line">Chỉ bảng khoa đó mở, các bảng khác vẫn khoá. Mọi lần mở lại BẮT LÝ DO.</text><text x="1810" y="1322.84" text-anchor="middle" fill="#334155" class="note-line">Hệ không cưỡng chế được bản giấy đã in — nên mọi file đều in revision + thời điểm.</text></g><g><rect x="120" y="1445" width="390" height="145" rx="16" fill="#EFF6FF" stroke="#2563EB" stroke-width="2.4"  filter="url(#shadow)"/><text x="315" y="1500.34" text-anchor="middle" fill="#1E3A8A" class="node-title">14 · Sau trình ký</text><text x="315" y="1522.34" text-anchor="middle" fill="#1E3A8A" class="node-line">Bật tuỳ chọn mua thêm 30% cho các khoa</text><text x="315" y="1544.34" text-anchor="middle" fill="#1E3A8A" class="node-line">Trả mã hàng về danh sách khoa cho kỳ sau</text></g><g><rect x="580" y="1445" width="390" height="145" rx="16" fill="#EFF6FF" stroke="#2563EB" stroke-width="2.4"  filter="url(#shadow)"/><text x="775" y="1489.34" text-anchor="middle" fill="#1E3A8A" class="node-title">15 · Tiến độ sử dụng</text><text x="775" y="1511.34" text-anchor="middle" fill="#1E3A8A" class="node-line">Nạp HIS · chỉnh ngưỡng cam kết 20/50/80</text><text x="775" y="1533.34" text-anchor="middle" fill="#1E3A8A" class="node-line">Tách CHẬM CAM KẾT và SẮP HẾT SỚM</text><text x="775" y="1555.34" text-anchor="middle" fill="#1E3A8A" class="node-line">Module sau khi hàng về, ngoài pipeline</text></g><g><rect x="1040" y="1445" width="390" height="145" rx="16" fill="#EFF6FF" stroke="#2563EB" stroke-width="2.4"  filter="url(#shadow)"/><text x="1235" y="1489.34" text-anchor="middle" fill="#1E3A8A" class="node-title">Luồng dùng chung</text><text x="1235" y="1511.34" text-anchor="middle" fill="#1E3A8A" class="node-line">Xử lý Sổ thiếu hàng</text><text x="1235" y="1533.34" text-anchor="middle" fill="#1E3A8A" class="node-line">Duyệt mã kỹ thuật mới khoa đề nghị</text><text x="1235" y="1555.34" text-anchor="middle" fill="#1E3A8A" class="node-line">Duyệt đề nghị sửa tiêu chí kỹ thuật</text></g><g><rect x="1500" y="1445" width="620" height="145" rx="8" fill="#FFFBEB" stroke="#D97706" stroke-width="2.4" stroke-dasharray="9 6" filter="url(#shadow)"/><text x="1810" y="1489.34" text-anchor="middle" fill="#78350F" class="note-title">⚠ NỢ KỸ THUẬT ĐANG CÒN (20/08/2026)</text><text x="1810" y="1511.34" text-anchor="middle" fill="#78350F" class="note-line">danh_muc_khoa_o chưa có cột neo đợt → 3 đợt bổ sung/năm dùng chung goi_id 'bo-sung'</text><text x="1810" y="1533.34" text-anchor="middle" fill="#78350F" class="note-line">và cùng năm, nên xài chung một dòng giải trình. Fix lan tới 6 RPC + 3 chỗ đọc frontend.</text><text x="1810" y="1555.34" text-anchor="middle" fill="#78350F" class="note-line">Chi tiết: ../05_TRANG_THAI_VA_VIEC_TIEP_THEO.md mục 3.</text></g></g>
  <text x="60" y="1976" class="footer">Nguồn chuẩn: ../01_NGHIEP_VU_HIEN_HANH.md · Quyết định đã bị đảo: ../06_DUNG_LAM_LAI.md · Vẽ lại 20/08/2026 theo workflow v3 + luật V2</text>
</svg>
